<?xml version="1.0" encoding="utf-8"?>
<!-- Generator: Adobe Illustrator 16.0.4, SVG Export Plug-In . SVG Version: 6.00 Build 0)  -->
<!DOCTYPE svg PUBLIC "-//W3C//DTD SVG 1.1//EN" "http://www.w3.org/Graphics/SVG/1.1/DTD/svg11.dtd">
<svg version="1.1" id="Layer_1" xmlns="http://www.w3.org/2000/svg" xmlns:xlink="http://www.w3.org/1999/xlink" x="0px" y="0px"
	 width="792px" height="612px" viewBox="0 0 792 612" enable-background="new 0 0 792 612" xml:space="preserve">
<path fill="#36315D" d="M396,9.562c163.758,0,296.438,132.68,296.438,296.438S559.758,602.438,396,602.438
	S99.562,469.758,99.562,306S232.242,9.562,396,9.562z M532.146,285.68L370.181,123.715c-11.236-11.236-29.405-11.236-40.521,0
	l-20.32,20.32c-11.236,11.236-11.236,29.405,0,40.521L430.783,306L309.34,427.443c-11.236,11.235-11.236,29.404,0,40.521
	l20.32,20.32c11.236,11.235,29.405,11.235,40.521,0L532.146,326.32C543.382,315.084,543.382,296.916,532.146,285.68z"/>
</svg>
