<?xml version="1.0" encoding="utf-8"?>
<!-- Generator: Adobe Illustrator 16.0.4, SVG Export Plug-In . SVG Version: 6.00 Build 0)  -->
<!DOCTYPE svg PUBLIC "-//W3C//DTD SVG 1.1//EN" "http://www.w3.org/Graphics/SVG/1.1/DTD/svg11.dtd">
<svg version="1.1" id="Layer_1" xmlns="http://www.w3.org/2000/svg" xmlns:xlink="http://www.w3.org/1999/xlink" x="0px" y="0px"
	 width="792px" height="612px" viewBox="0 0 792 612" enable-background="new 0 0 792 612" xml:space="preserve">
<path fill="#36315D" d="M396,602.438c-163.758,0-296.438-132.68-296.438-296.438S232.242,9.562,396,9.562
	S692.438,142.242,692.438,306S559.758,602.438,396,602.438z M259.854,326.32l161.964,161.965c11.235,11.236,29.404,11.236,40.521,0
	l20.32-20.32c11.235-11.236,11.235-29.404,0-40.521L361.216,306L482.66,184.556c11.236-11.236,11.236-29.405,0-40.521l-20.32-20.32
	c-11.236-11.236-29.404-11.236-40.521,0L259.854,285.68C248.618,296.916,248.618,315.084,259.854,326.32z"/>
</svg>
